<svg id="Layer_2" data-name="Layer 2" xmlns="http://www.w3.org/2000/svg"  width="48" height="48" viewBox="0 0 44 44">
  <defs>
    <style>
      .cls-1 {
        fill: #005087;
      }

      .cls-1, .cls-2 {
        stroke-width: 0px;
      }

      .cls-2 {
        fill: #fff;
      }
    </style>
  </defs>
  <g id="Layer_1-2" data-name="Layer 1">
    <g>
      <path id="Subtraction_1" data-name="Subtraction 1" class="cls-1" d="M42,44H2c-1.1,0-2-.9-2-2V2C0,.9.9,0,2,0h40c1.1,0,2,.9,2,2v40c0,1.1-.9,2-2,2ZM8.26,16.75v19.24h5.96v-19.24h-5.96ZM27.37,21.58c.95-.06,1.87.36,2.44,1.12.59.96.87,2.08.8,3.2v10.1h5.93v-12.19c.14-2.1-.57-4.18-1.97-5.76-1.35-1.29-3.17-1.97-5.03-1.89-1.62-.02-3.19.55-4.43,1.59-.54.45-1.01.99-1.37,1.59v-2.59h-5.71v19.24h5.71v-10.1c-.07-1.13.25-2.25.92-3.17.68-.78,1.68-1.21,2.71-1.14h0ZM11.21,7.13c-1.96-.02-3.56,1.56-3.58,3.52-.02,1.96,1.56,3.56,3.52,3.58s3.56-1.56,3.58-3.52c0-.01,0-.02,0-.03,0-1.95-1.57-3.54-3.52-3.55Z"/>
      <rect class="cls-2" x="8.26" y="16.75" width="5.96" height="19.24"/>
      <path class="cls-2" d="M27.37,21.58c.95-.06,1.87.36,2.44,1.12.59.96.87,2.08.8,3.2v10.1h5.93v-12.19c.14-2.1-.57-4.18-1.97-5.76-1.35-1.29-3.17-1.97-5.03-1.89-1.62-.02-3.19.55-4.43,1.59-.54.45-1.01.99-1.37,1.59v-2.59h-5.71v19.24h5.71v-10.1c-.07-1.13.25-2.25.92-3.17.68-.78,1.68-1.21,2.71-1.14h0Z"/>
      <path class="cls-2" d="M11.21,7.13c-1.96-.02-3.56,1.56-3.58,3.52-.02,1.96,1.56,3.56,3.52,3.58s3.56-1.56,3.58-3.52c0-.01,0-.02,0-.03,0-1.95-1.57-3.54-3.52-3.55Z"/>
    </g>
  </g>
</svg>