<svg xmlns="http://www.w3.org/2000/svg" width="106.448" height="27" viewBox="0 0 106.448 27">
  <g id="Group_5986" data-name="Group 5986" transform="translate(-1262 -743)">
    <path id="Icon_material-volume-off" data-name="Icon material-volume-off" d="M24.75,18A6.751,6.751,0,0,0,21,11.955V15.27l3.675,3.675A6.348,6.348,0,0,0,24.75,18Zm3.75,0a10.264,10.264,0,0,1-.81,3.96l2.265,2.265A13.2,13.2,0,0,0,31.5,18,13.5,13.5,0,0,0,21,4.845v3.09A10.508,10.508,0,0,1,28.5,18ZM6.405,4.5,4.5,6.405,11.6,13.5H4.5v9h6L18,30V19.9l6.375,6.375A10.385,10.385,0,0,1,21,28.05v3.09a13.484,13.484,0,0,0,5.535-2.715l3.06,3.075L31.5,29.595,18,16.095ZM18,6,14.865,9.135,18,12.27Z" transform="translate(1257.5 738.5)" fill="#64dcf0"/>
    <path id="Path_1491" data-name="Path 1491" d="M-27.708-14.16a3.287,3.287,0,0,0-1.92.5,1.523,1.523,0,0,0-.72,1.3,1.755,1.755,0,0,0,1,1.548,9.257,9.257,0,0,0,2.916.948,10.131,10.131,0,0,1,4.524,1.728,4.011,4.011,0,0,1,1.4,3.288,4.438,4.438,0,0,1-1.836,3.66A7.7,7.7,0,0,1-27.2.24,9.467,9.467,0,0,1-31.812-.912a7.044,7.044,0,0,1-3.1-3.96l2.88-1.8A5.36,5.36,0,0,0-30.264-3.72a4.855,4.855,0,0,0,3.132,1.008,4.648,4.648,0,0,0,2.424-.552A1.659,1.659,0,0,0-23.8-4.728,1.71,1.71,0,0,0-24.66-6.24a8.343,8.343,0,0,0-2.976-.888q-5.952-.912-5.952-5.256a4.074,4.074,0,0,1,1.7-3.312,6.84,6.84,0,0,1,4.368-1.344,7.059,7.059,0,0,1,3.924,1.08,5.832,5.832,0,0,1,2.364,3.048l-2.808,1.632A3.507,3.507,0,0,0-27.708-14.16Zm8.76,8.472a5.757,5.757,0,0,1,1.68-4.248A5.787,5.787,0,0,1-13-11.616a5.787,5.787,0,0,1,4.272,1.68,5.757,5.757,0,0,1,1.68,4.248A5.746,5.746,0,0,1-8.736-1.452,5.776,5.776,0,0,1-13,.24a5.776,5.776,0,0,1-4.26-1.692A5.746,5.746,0,0,1-18.948-5.688Zm8.064,2.3a3.216,3.216,0,0,0,.84-2.3,3.2,3.2,0,0,0-.828-2.292A2.793,2.793,0,0,0-13-8.856a2.793,2.793,0,0,0-2.124.876,3.2,3.2,0,0,0-.828,2.292A3.2,3.2,0,0,0-15.12-3.4,2.793,2.793,0,0,0-13-2.52,2.774,2.774,0,0,0-10.884-3.384ZM2.988-11.376H6.036V0H2.988V-1.68a3.369,3.369,0,0,1-1.356,1.4A4.148,4.148,0,0,1-.468.24,4.274,4.274,0,0,1-3.612-.9,4.373,4.373,0,0,1-4.764-4.152v-7.224h3.072V-4.92a2.854,2.854,0,0,0,.54,1.872A1.9,1.9,0,0,0,.4-2.4,2.324,2.324,0,0,0,2.3-3.24a3.507,3.507,0,0,0,.684-2.28ZM12.036,0H8.964V-11.376h3.072v1.488a3.841,3.841,0,0,1,3.456-1.728A4.038,4.038,0,0,1,18.48-10.5,4.135,4.135,0,0,1,19.6-7.44V0H16.524V-6.6a2.748,2.748,0,0,0-.576-1.848,1.948,1.948,0,0,0-1.56-.672,2.135,2.135,0,0,0-1.7.756,3.087,3.087,0,0,0-.648,2.076Zm9.84-5.64A6.128,6.128,0,0,1,23.4-9.96a5.037,5.037,0,0,1,3.876-1.656,3.886,3.886,0,0,1,3.6,1.944V-16.8h3.072V0H31V-1.632A4,4,0,0,1,27.348.24,5.175,5.175,0,0,1,23.4-1.38,5.964,5.964,0,0,1,21.876-5.64Zm9.12,0a3.362,3.362,0,0,0-.876-2.412,2.845,2.845,0,0,0-2.148-.924,2.852,2.852,0,0,0-2.16.912,3.38,3.38,0,0,0-.864,2.424,3.261,3.261,0,0,0,.864,2.376,2.89,2.89,0,0,0,2.16.888,2.881,2.881,0,0,0,2.148-.9A3.245,3.245,0,0,0,31-5.64Z" transform="translate(1334 764)" fill="#64dcf0" stroke="rgba(0,0,0,0)" stroke-width="1"/>
  </g>
</svg>
