<svg xmlns="http://www.w3.org/2000/svg" xmlns:xlink="http://www.w3.org/1999/xlink" width="26" height="26" viewBox="0 0 26 26">
  <defs>
    <clipPath id="clip-path">
      <rect id="Rectangle_1860" data-name="Rectangle 1860" width="26" height="26" fill="none" stroke="#fff" stroke-width="1"/>
    </clipPath>
  </defs>
  <g id="Group_6024" data-name="Group 6024" clip-path="url(#clip-path)">
    <g id="Ellipse_259" data-name="Ellipse 259" transform="translate(3.11 3)" fill="none" stroke="#005087" stroke-width="2">
      <circle cx="10" cy="10" r="10" stroke="none"/>
      <circle cx="10" cy="10" r="9" fill="none"/>
    </g>
    <g id="Polygon_21" data-name="Polygon 21" transform="translate(18.5 7) rotate(90)" fill="none">
      <path d="M5.193,1.1a1,1,0,0,1,1.613,0l4.028,5.5a1,1,0,0,1-.807,1.591H1.972A1,1,0,0,1,1.165,6.6Z" stroke="none"/>
      <path d="M 5.999997138977051 3.384590148925781 L 3.944073677062988 6.191409587860107 L 8.055926322937012 6.191409587860107 L 5.999997138977051 3.384590148925781 M 5.999998569488525 0.6922922134399414 C 6.303484916687012 0.6922922134399414 6.606969833374023 0.8286547660827637 6.806729793548584 1.10137939453125 L 10.8346996307373 6.600489616394043 C 11.31855964660645 7.261079788208008 10.84679985046387 8.191410064697266 10.0279598236084 8.191410064697266 L 1.972040176391602 8.191410064697266 C 1.153200149536133 8.191410064697266 0.6814403533935547 7.261079788208008 1.165300369262695 6.600489616394043 L 5.193260192871094 1.10137939453125 C 5.393024921417236 0.8286547660827637 5.696512699127197 0.6922922134399414 5.999998569488525 0.6922922134399414 Z" stroke="none" fill="#005087"/>
    </g>
  </g>
</svg>
